<svg width="60" height="60" viewBox="0 0 60 60" fill="none" xmlns="http://www.w3.org/2000/svg">
<rect opacity="0.2" width="60" height="60" rx="16" fill="#C3C3C3"/>
<path d="M25.1789 43.6844C26.1473 43.6844 26.421 43.3055 26.421 42.8213C26.421 42.3371 26.421 41.2844 26.4 39.7897C21.3684 40.8634 20.2947 37.3897 20.2947 37.3897C19.4737 35.3476 18.2737 34.7792 18.2737 34.7792C16.6315 33.6844 18.4 33.7055 18.4 33.7055C20.2105 33.8318 21.1789 35.5371 21.1789 35.5371C22.8 38.2739 25.4105 37.4739 26.4421 37.0108C26.5263 36.1055 26.9263 35.2423 27.6 34.6108C23.5789 34.1687 19.3473 32.6318 19.3473 25.8108C19.3263 24.0423 20 22.316 21.221 21.0318C21.0105 20.5897 20.4 18.7792 21.3684 16.316C21.3684 16.316 22.8842 15.8318 26.3579 18.1476C29.3263 17.3476 32.4421 17.3476 35.4105 18.1476C38.8421 15.8529 40.3789 16.316 40.3789 16.316C41.3473 18.7581 40.7368 20.5687 40.5684 21.0318C41.7894 22.316 42.4421 24.0423 42.421 25.8108C42.421 32.6529 38.1894 34.1476 34.1473 34.5897C34.7789 35.116 35.3684 36.2108 35.3684 37.8739C35.3684 40.2739 35.3473 42.1687 35.3473 42.7371C35.3473 43.2002 35.5579 43.5792 36.5894 43.5792L25.1789 43.6844Z" fill="#A0BBFD"/>
</svg>
