<svg width="60" height="60" viewBox="0 0 60 60" fill="none" xmlns="http://www.w3.org/2000/svg">
<rect opacity="0.2" width="60" height="60" rx="16" fill="#C3C3C3"/>
<g clip-path="url(#clip0_80_126)">
<path d="M30.0053 21.7842C25.468 21.7842 21.7947 25.4615 21.7947 29.9948C21.7947 34.5322 25.472 38.2055 30.0053 38.2055C34.5427 38.2055 38.216 34.5282 38.216 29.9948C38.216 25.4575 34.5387 21.7842 30.0053 21.7842ZM30.0053 35.3242C27.06 35.3242 24.676 32.9388 24.676 29.9948C24.676 27.0508 27.0613 24.6655 30.0053 24.6655C32.9493 24.6655 35.3347 27.0508 35.3347 29.9948C35.336 32.9388 32.9507 35.3242 30.0053 35.3242Z" fill="#A0BBFD"/>
<path d="M36.5974 14.1015C33.6534 13.9642 26.3614 13.9708 23.4147 14.1015C20.8254 14.2228 18.5414 14.8482 16.7001 16.6895C13.6227 19.7668 14.0161 23.9135 14.0161 29.9948C14.0161 36.2188 13.6694 40.2695 16.7001 43.3002C19.7894 46.3882 23.9961 45.9842 30.0054 45.9842C36.1707 45.9842 38.2987 45.9882 40.4787 45.1442C43.4427 43.9935 45.6801 41.3442 45.8987 36.5855C46.0374 33.6402 46.0294 26.3495 45.8987 23.4028C45.6347 17.7855 42.6201 14.3788 36.5974 14.1015ZM41.2574 41.2642C39.2401 43.2815 36.4414 43.1015 29.9667 43.1015C23.3001 43.1015 20.6267 43.2002 18.6761 41.2442C16.4294 39.0082 16.8361 35.4175 16.8361 29.9735C16.8361 22.6068 16.0801 17.3015 23.4734 16.9228C25.1721 16.8628 25.6721 16.8428 29.9481 16.8428L30.0081 16.8828C37.1134 16.8828 42.6881 16.1388 43.0227 23.5308C43.0987 25.2175 43.1161 25.7242 43.1161 29.9935C43.1147 36.5828 43.2401 39.2722 41.2574 41.2642Z" fill="#A0BBFD"/>
<path d="M38.5412 23.3788C39.6009 23.3788 40.4599 22.5198 40.4599 21.4602C40.4599 20.4005 39.6009 19.5415 38.5412 19.5415C37.4816 19.5415 36.6226 20.4005 36.6226 21.4602C36.6226 22.5198 37.4816 23.3788 38.5412 23.3788Z" fill="#A0BBFD"/>
</g>
<defs>
<clipPath id="clip0_80_126">
<rect width="32" height="32" fill="white" transform="translate(14 14)"/>
</clipPath>
</defs>
</svg>
