<svg width="60" height="60" viewBox="0 0 60 60" fill="none" xmlns="http://www.w3.org/2000/svg">
<rect opacity="0.2" width="60" height="60" rx="16" fill="#C3C3C3"/>
<g clip-path="url(#clip0_80_105)">
<path d="M45.9919 46L45.9999 45.9986V34.2626C45.9999 28.5213 44.7639 24.0986 38.0519 24.0986C34.8253 24.0986 32.6599 25.8693 31.7759 27.548H31.6826V24.6346H25.3186V45.9986H31.9453V35.42C31.9453 32.6346 32.4733 29.9413 35.9226 29.9413C39.3213 29.9413 39.3719 33.12 39.3719 35.5986V46H45.9919Z" fill="#A0BBFD"/>
<path d="M14.5281 24.6362H21.1627V46.0002H14.5281V24.6362Z" fill="#A0BBFD"/>
<path d="M17.8427 14C15.7213 14 14 15.7213 14 17.8427C14 19.964 15.7213 21.7213 17.8427 21.7213C19.964 21.7213 21.6853 19.964 21.6853 17.8427C21.684 15.7213 19.9627 14 17.8427 14Z" fill="#A0BBFD"/>
</g>
<defs>
<clipPath id="clip0_80_105">
<rect width="32" height="32" fill="white" transform="translate(14 14)"/>
</clipPath>
</defs>
</svg>
