<svg width="60" height="60" viewBox="0 0 60 60" fill="none" xmlns="http://www.w3.org/2000/svg">
<rect opacity="0.2" width="60" height="60" rx="16" fill="#C3C3C3"/>
<path d="M32.9797 27.6598L44.098 14.7356L44.2402 14.5704H44.0222H41.3757H41.3298L41.2999 14.6052L31.6873 25.7789L24.0156 14.6138L23.9858 14.5704H23.9332H15H14.81L14.9176 14.727L26.5863 31.7091L14.9242 45.2644L14.7821 45.4296H15H17.6466H17.6925L17.7225 45.3948L27.8784 33.5895L35.9844 45.3863L36.0142 45.4296H36.0668H45H45.19L45.0824 45.273L32.9797 27.6598ZM37.364 43.3279L29.3291 31.8353V31.8346L29.3111 31.8088L28.1244 30.1114L18.7922 16.7628H22.6133L30.2033 27.6198L30.2853 27.5625L30.2033 27.6198L31.39 29.3172L41.185 43.3279H37.364Z" fill="#A0BBFD" stroke="#A0BBFD" stroke-width="0.2"/>
</svg>
