<svg width="60" height="60" viewBox="0 0 60 60" fill="none" xmlns="http://www.w3.org/2000/svg">
<rect opacity="0.2" width="60" height="60" rx="16" fill="#C3C3C3"/>
<path d="M25.179 43.6842C26.1474 43.6842 26.4211 43.3053 26.4211 42.821C26.4211 42.3368 26.4211 41.2842 26.4 39.7895C21.3685 40.8632 20.2948 37.3895 20.2948 37.3895C19.4737 35.3474 18.2737 34.7789 18.2737 34.7789C16.6316 33.6842 18.4 33.7053 18.4 33.7053C20.2106 33.8316 21.179 35.5368 21.179 35.5368C22.8 38.2737 25.4106 37.4737 26.4421 37.0105C26.5263 36.1053 26.9263 35.2421 27.6 34.6105C23.579 34.1684 19.3474 32.6316 19.3474 25.8105C19.3263 24.0421 20 22.3158 21.2211 21.0316C21.0106 20.5895 20.4 18.7789 21.3684 16.3158C21.3684 16.3158 22.8842 15.8316 26.3579 18.1474C29.3263 17.3474 32.4421 17.3474 35.4106 18.1474C38.8421 15.8526 40.379 16.3158 40.379 16.3158C41.3474 18.7579 40.7369 20.5684 40.5684 21.0316C41.7895 22.3158 42.4421 24.0421 42.4211 25.8105C42.4211 32.6526 38.1895 34.1474 34.1474 34.5895C34.779 35.1158 35.3685 36.2105 35.3685 37.8737C35.3685 40.2737 35.3474 42.1684 35.3474 42.7368C35.3474 43.2 35.5579 43.5789 36.5895 43.5789L25.179 43.6842Z" fill="#FF6E1D"/>
</svg>
