<svg width="60" height="60" viewBox="0 0 60 60" fill="none" xmlns="http://www.w3.org/2000/svg">
<rect opacity="0.2" width="60" height="60" rx="16" fill="#C3C3C3"/>
<g clip-path="url(#clip0_15_177)">
<path d="M30.0053 21.7839C25.468 21.7839 21.7947 25.4613 21.7947 29.9946C21.7947 34.5319 25.472 38.2053 30.0053 38.2053C34.5427 38.2053 38.216 34.5279 38.216 29.9946C38.216 25.4573 34.5387 21.7839 30.0053 21.7839ZM30.0053 35.3239C27.06 35.3239 24.676 32.9386 24.676 29.9946C24.676 27.0506 27.0613 24.6653 30.0053 24.6653C32.9493 24.6653 35.3347 27.0506 35.3347 29.9946C35.336 32.9386 32.9507 35.3239 30.0053 35.3239Z" fill="#FF6E1D"/>
<path d="M36.5973 14.1012C33.6533 13.9639 26.3613 13.9706 23.4147 14.1012C20.8253 14.2226 18.5413 14.8479 16.7 16.6892C13.6227 19.7666 14.016 23.9132 14.016 29.9946C14.016 36.2186 13.6693 40.2692 16.7 43.2999C19.7893 46.3879 23.996 45.9839 30.0053 45.9839C36.1707 45.9839 38.2987 45.9879 40.4787 45.1439C43.4427 43.9932 45.68 41.3439 45.8987 36.5852C46.0373 33.6399 46.0293 26.3492 45.8987 23.4026C45.6347 17.7852 42.62 14.3786 36.5973 14.1012ZM41.2573 41.2639C39.24 43.2812 36.4413 43.1012 29.9667 43.1012C23.3 43.1012 20.6267 43.1999 18.676 41.2439C16.4293 39.0079 16.836 35.4172 16.836 29.9732C16.836 22.6066 16.08 17.3012 23.4733 16.9226C25.172 16.8626 25.672 16.8426 29.948 16.8426L30.008 16.8826C37.1133 16.8826 42.688 16.1386 43.0227 23.5306C43.0987 25.2172 43.116 25.7239 43.116 29.9932C43.1147 36.5826 43.24 39.2719 41.2573 41.2639Z" fill="#FF6E1D"/>
<path d="M38.5413 23.3786C39.601 23.3786 40.46 22.5196 40.46 21.4599C40.46 20.4003 39.601 19.5413 38.5413 19.5413C37.4817 19.5413 36.6227 20.4003 36.6227 21.4599C36.6227 22.5196 37.4817 23.3786 38.5413 23.3786Z" fill="#FF6E1D"/>
</g>
<defs>
<clipPath id="clip0_15_177">
<rect width="32" height="32" fill="white" transform="translate(14 14)"/>
</clipPath>
</defs>
</svg>
