<svg width="60" height="60" viewBox="0 0 60 60" fill="none" xmlns="http://www.w3.org/2000/svg">
<rect opacity="0.2" width="60" height="60" rx="16" fill="#C3C3C3"/>
<path d="M30 24.8647C27.1664 24.8647 24.8647 27.1664 24.8647 30C24.8647 32.8336 27.1664 35.1408 30 35.1408C32.8336 35.1408 35.1408 32.8336 35.1408 30C35.1408 27.1664 32.8336 24.8647 30 24.8647Z" fill="#FF6E1D"/>
<path d="M37.7505 16H22.2496C18.8056 16 16 18.8056 16 22.2496V37.7505C16 41.2001 18.8056 44.0002 22.2496 44.0002H37.7505C41.2001 44.0002 44.0002 41.2001 44.0002 37.7505V22.2496C44.0002 18.8056 41.2001 16 37.7505 16ZM30.0001 39.0721C24.9993 39.0721 20.928 35.0009 20.928 30.0001C20.928 24.9993 24.9993 20.9336 30.0001 20.9336C35.0009 20.9336 39.0721 24.9993 39.0721 30.0001C39.0721 35.0009 35.0009 39.0721 30.0001 39.0721ZM39.2625 22.58C38.2041 22.58 37.3417 21.7232 37.3417 20.6648C37.3417 19.6064 38.2041 18.744 39.2625 18.744C40.3209 18.744 41.1833 19.6064 41.1833 20.6648C41.1833 21.7232 40.3209 22.58 39.2625 22.58Z" fill="#FF6E1D"/>
</svg>
