<svg width="60" height="60" viewBox="0 0 60 60" fill="none" xmlns="http://www.w3.org/2000/svg">
<rect opacity="0.2" width="60" height="60" rx="16" fill="#C3C3C3"/>
<g clip-path="url(#clip0_15_173)">
<path d="M46 20.078C44.81 20.6 43.542 20.946 42.22 21.114C43.58 20.302 44.618 19.026 45.106 17.488C43.838 18.244 42.438 18.778 40.946 19.076C39.742 17.794 38.026 17 36.154 17C32.522 17 29.598 19.948 29.598 23.562C29.598 24.082 29.642 24.582 29.75 25.058C24.296 24.792 19.47 22.178 16.228 18.196C15.662 19.178 15.33 20.302 15.33 21.512C15.33 23.784 16.5 25.798 18.244 26.964C17.19 26.944 16.156 26.638 15.28 26.156C15.28 26.176 15.28 26.202 15.28 26.228C15.28 29.416 17.554 32.064 20.536 32.674C20.002 32.82 19.42 32.89 18.816 32.89C18.396 32.89 17.972 32.866 17.574 32.778C18.424 35.376 20.836 37.286 23.704 37.348C21.472 39.094 18.638 40.146 15.57 40.146C15.032 40.146 14.516 40.122 14 40.056C16.906 41.93 20.35 43 24.064 43C36.136 43 42.736 33 42.736 24.332C42.736 24.042 42.726 23.762 42.712 23.484C44.014 22.56 45.108 21.406 46 20.078Z" fill="#FF6E1D"/>
</g>
<defs>
<clipPath id="clip0_15_173">
<rect width="32" height="32" fill="white" transform="translate(14 14)"/>
</clipPath>
</defs>
</svg>
