<?xml version="1.0" standalone="no"?>
<!DOCTYPE svg PUBLIC "-//W3C//DTD SVG 20010904//EN"
 "http://www.w3.org/TR/2001/REC-SVG-20010904/DTD/svg10.dtd">
<svg version="1.0" xmlns="http://www.w3.org/2000/svg"
 width="100.000000pt" height="100.000000pt" viewBox="0 0 100.000000 100.000000"
 preserveAspectRatio="xMidYMid meet">
<metadata>
Created by potrace 1.14, written by Peter Selinger 2001-2017
</metadata>
<g transform="translate(0.000000,100.000000) scale(0.100000,-0.100000)"
fill="#000000" stroke="none">
<path d="M365 981 c-92 -27 -144 -58 -216 -130 -100 -99 -149 -216 -149 -351
0 -135 49 -252 149 -351 72 -73 135 -109 228 -133 115 -30 247 -15 357 41 65
33 176 144 209 209 75 147 75 321 0 468 -33 65 -144 176 -209 209 -113 57
-254 72 -369 38z"/>
</g>
</svg>
