<?xml version="1.0" standalone="no"?>
<!DOCTYPE svg PUBLIC "-//W3C//DTD SVG 20010904//EN"
 "http://www.w3.org/TR/2001/REC-SVG-20010904/DTD/svg10.dtd">
<svg version="1.0" xmlns="http://www.w3.org/2000/svg"
 width="1042.000000pt" height="1042.000000pt" viewBox="0 0 1042.000000 1042.000000"
 preserveAspectRatio="xMidYMid meet">
<metadata>
Created by potrace 1.14, written by Peter Selinger 2001-2017
</metadata>
<g transform="translate(0.000000,1042.000000) scale(0.100000,-0.100000)"
fill="#000000" stroke="none">
<path d="M4885 10413 c-2222 -143 -4108 -1673 -4699 -3813 -120 -436 -174
-812 -183 -1285 -12 -626 70 -1172 262 -1750 484 -1453 1607 -2641 3025 -3198
474 -186 938 -296 1475 -348 172 -17 701 -18 880 -1 671 63 1269 229 1850 512
525 257 975 579 1396 999 878 878 1393 1985 1511 3246 17 179 16 708 -1 880
-52 537 -162 1001 -348 1475 -414 1054 -1190 1966 -2173 2554 -702 420 -1479
664 -2310 726 -122 9 -562 11 -685 3z m442 -1596 c22 -15 50 -46 64 -70 l24
-42 0 -677 c0 -372 -4 -680 -8 -684 -4 -5 -16 -3 -25 4 -78 57 -179 67 -272
29 -30 -13 -165 -86 -300 -163 -135 -77 -360 -203 -500 -279 -140 -76 -270
-149 -289 -163 -55 -41 -58 -60 -59 -349 0 -145 2 -263 4 -263 6 0 185 99 704
389 469 261 498 276 545 275 89 -1 172 -62 195 -142 8 -26 10 -480 8 -1499 -3
-1444 -3 -1462 -23 -1488 -13 -17 -273 -168 -700 -407 -374 -209 -813 -454
-975 -545 -282 -157 -297 -164 -341 -160 -54 5 -102 35 -127 80 -16 29 -17 80
-16 612 0 629 -1 610 56 661 22 21 250 152 1004 577 182 103 341 199 355 213
24 26 24 26 28 300 2 151 1 274 -1 274 -3 0 -329 -180 -724 -399 l-719 -400
-3 1582 c-1 870 0 1601 3 1624 4 24 17 56 31 72 13 16 104 73 201 127 98 53
509 282 913 507 404 225 749 416 765 424 48 22 136 12 182 -20z m1014 -573
c696 -390 808 -454 824 -477 13 -19 15 -109 15 -724 l0 -703 -32 13 c-18 8
-202 108 -408 224 -703 394 -768 432 -792 466 l-23 32 -3 698 c-1 383 1 697 6
697 5 0 191 -102 413 -226z m-26 -2015 c171 -95 425 -237 565 -315 189 -105
261 -150 278 -174 l22 -33 0 -1509 c0 -1294 -2 -1513 -14 -1537 -12 -22 -209
-135 -965 -555 -651 -362 -962 -529 -988 -532 -34 -5 -70 13 -378 183 -881
488 -915 507 -902 520 14 13 321 186 1182 663 737 408 752 417 779 453 l21 28
3 1515 2 1515 43 -25 c23 -13 182 -102 352 -197z"/>
</g>
</svg>
