<?xml version="1.0" standalone="no"?>
<!DOCTYPE svg PUBLIC "-//W3C//DTD SVG 20010904//EN"
 "http://www.w3.org/TR/2001/REC-SVG-20010904/DTD/svg10.dtd">
<svg version="1.0" xmlns="http://www.w3.org/2000/svg"
 width="278.000000pt" height="278.000000pt" viewBox="0 0 278.000000 278.000000"
 preserveAspectRatio="xMidYMid meet">
<metadata>
Created by potrace 1.14, written by Peter Selinger 2001-2017
</metadata>
<g transform="translate(0.000000,278.000000) scale(0.100000,-0.100000)"
fill="#000000" stroke="none">
<path d="M1275 2768 c-257 -17 -535 -125 -740 -288 -214 -171 -375 -400 -460
-655 -92 -273 -92 -593 -1 -870 174 -525 667 -910 1208 -943 76 -5 116 -4 115
3 -1 5 3 9 8 8 6 -1 11 13 11 32 0 27 -4 32 -19 29 -15 -3 -17 -1 -7 11 7 8
15 13 19 11 4 -3 7 10 7 29 0 27 -4 32 -19 29 -15 -3 -17 -1 -7 11 7 8 15 13
19 11 4 -3 7 10 7 29 0 27 -4 32 -19 29 -15 -3 -17 -1 -7 11 7 8 15 13 19 11
4 -3 7 10 7 29 0 27 -4 32 -19 29 -15 -3 -17 -1 -7 11 7 8 15 13 19 11 4 -3 7
10 7 29 0 27 -4 32 -19 29 -15 -3 -17 -1 -7 11 7 8 15 13 19 11 4 -3 7 10 7
29 0 27 -4 32 -19 29 -15 -3 -17 -1 -7 11 7 8 15 13 19 11 4 -3 7 10 7 29 0
27 -4 32 -19 29 -15 -3 -17 -1 -7 11 7 8 15 13 19 11 4 -3 7 10 7 29 0 27 -4
32 -19 29 -15 -3 -17 -1 -7 11 7 8 15 13 19 11 4 -3 7 10 7 29 0 27 -4 32 -19
29 -15 -3 -17 -1 -7 11 7 8 15 13 19 11 4 -3 7 10 7 29 0 27 -4 32 -19 29 -15
-3 -17 -1 -7 11 7 8 15 13 19 11 4 -3 7 10 7 29 0 27 -4 32 -19 29 -15 -3 -17
-1 -7 11 7 8 15 13 19 11 4 -3 7 10 7 29 0 27 -4 32 -19 29 -15 -3 -17 -1 -7
11 7 8 15 13 19 11 4 -3 7 10 7 29 0 27 -4 32 -19 29 -15 -3 -17 -1 -7 11 7 8
15 13 19 11 4 -3 7 10 7 29 0 27 -4 32 -19 29 -15 -3 -17 -1 -7 11 7 8 15 13
19 11 4 -3 7 10 7 29 0 27 -4 32 -19 29 -15 -3 -17 -1 -7 11 7 8 16 13 20 10
11 -7 6 22 -5 32 -4 4 -5 3 -2 -3 3 -6 0 -11 -8 -11 -11 0 -12 4 -3 14 6 7 13
11 15 9 3 -3 17 6 32 20 l26 24 3 -25 c3 -24 6 -25 68 -25 l64 0 0 105 c0 99
2 107 25 130 30 31 69 32 89 3 12 -17 16 -49 16 -130 l0 -108 130 0 130 0 0
175 0 175 -65 0 -65 0 0 -42 0 -43 -20 33 c-25 40 -73 62 -138 62 -35 0 -57
-6 -76 -21 -21 -16 -26 -17 -26 -5 0 10 -16 17 -54 21 -66 9 -76 3 -76 -39 l0
-33 -35 33 c-30 28 -43 53 -25 47 3 -1 6 13 6 32 0 27 -4 32 -19 29 -15 -3
-17 -1 -7 11 7 8 15 13 19 11 4 -3 7 10 7 29 0 27 -4 32 -19 29 -15 -3 -17 -1
-7 11 7 8 15 13 19 11 4 -3 7 10 7 29 0 27 -4 32 -19 29 -15 -3 -17 -1 -7 11
7 8 15 13 19 11 4 -3 7 10 7 29 0 27 -4 32 -19 29 -15 -3 -17 -1 -7 11 7 8 15
13 19 11 4 -3 7 10 7 29 0 27 -4 32 -19 29 -15 -3 -17 -1 -7 11 7 8 15 13 19
11 4 -3 7 10 7 29 0 27 -4 32 -19 29 -15 -3 -17 -1 -7 11 7 8 15 13 19 11 4
-3 7 10 7 29 0 27 -4 32 -19 29 -15 -3 -17 -1 -7 11 7 8 15 13 19 11 4 -3 7
10 7 29 0 27 -4 32 -19 29 -15 -3 -17 -1 -7 11 7 8 15 13 19 11 4 -3 7 10 7
29 0 27 -4 32 -19 29 -15 -3 -17 -1 -7 11 7 8 15 13 19 11 4 -3 7 10 7 29 0
27 -4 32 -19 29 -15 -3 -17 -1 -7 11 7 8 15 13 19 11 4 -3 7 10 7 29 0 27 -4
32 -19 29 -15 -3 -17 -1 -7 11 7 8 15 13 19 11 4 -3 7 10 7 29 0 27 -4 32 -19
29 -15 -3 -17 -1 -7 11 7 8 15 13 19 11 4 -3 7 10 7 29 0 27 -4 32 -19 29 -15
-3 -17 -1 -7 11 7 8 15 13 19 11 4 -3 7 10 7 29 0 27 -4 32 -19 29 -15 -3 -17
-1 -7 11 7 8 16 13 19 10 4 -2 8 2 8 10 0 8 -3 13 -5 10 -3 -3 -10 -1 -16 3
-6 4 -60 4 -121 0z m132 -71 c0 -8 -6 -14 -14 -14 -9 0 -10 4 -2 14 6 7 12 13
14 13 1 0 2 -6 2 -13z m0 -80 c0 -8 -6 -14 -14 -14 -9 0 -10 4 -2 14 6 7 12
13 14 13 1 0 2 -6 2 -13z m0 -80 c0 -8 -6 -14 -14 -14 -9 0 -10 4 -2 14 6 7
12 13 14 13 1 0 2 -6 2 -13z m0 -80 c0 -8 -6 -14 -14 -14 -9 0 -10 4 -2 14 6
7 12 13 14 13 1 0 2 -6 2 -13z m0 -80 c0 -8 -6 -14 -14 -14 -9 0 -10 4 -2 14
6 7 12 13 14 13 1 0 2 -6 2 -13z m0 -80 c0 -8 -6 -14 -14 -14 -9 0 -10 4 -2
14 6 7 12 13 14 13 1 0 2 -6 2 -13z m0 -80 c0 -8 -6 -14 -14 -14 -9 0 -10 4
-2 14 6 7 12 13 14 13 1 0 2 -6 2 -13z m0 -80 c0 -8 -6 -14 -14 -14 -9 0 -10
4 -2 14 6 7 12 13 14 13 1 0 2 -6 2 -13z m0 -80 c0 -8 -6 -14 -14 -14 -9 0
-10 4 -2 14 6 7 12 13 14 13 1 0 2 -6 2 -13z m0 -80 c0 -8 -6 -14 -14 -14 -9
0 -10 4 -2 14 6 7 12 13 14 13 1 0 2 -6 2 -13z m0 -80 c0 -8 -6 -14 -14 -14
-9 0 -10 4 -2 14 6 7 12 13 14 13 1 0 2 -6 2 -13z m0 -80 c0 -8 -6 -14 -14
-14 -9 0 -10 4 -2 14 6 7 12 13 14 13 1 0 2 -6 2 -13z m0 -80 c0 -8 -6 -14
-14 -14 -9 0 -10 4 -2 14 6 7 12 13 14 13 1 0 2 -6 2 -13z m0 -80 c0 -8 -6
-14 -14 -14 -9 0 -10 4 -2 14 6 7 12 13 14 13 1 0 2 -6 2 -13z m63 -272 c0
-31 -11 -32 -45 -2 l-27 23 36 2 c32 2 36 0 36 -23z m-63 -208 c0 -8 -6 -14
-14 -14 -9 0 -10 4 -2 14 6 7 12 13 14 13 1 0 2 -6 2 -13z m0 -80 c0 -8 -6
-14 -14 -14 -9 0 -10 4 -2 14 6 7 12 13 14 13 1 0 2 -6 2 -13z m0 -82 c0 -8
-4 -12 -9 -9 -5 3 -6 10 -3 15 9 13 12 11 12 -6z m0 -78 c0 -8 -6 -14 -14 -14
-9 0 -10 4 -2 14 6 7 12 13 14 13 1 0 2 -6 2 -13z m0 -80 c0 -8 -6 -14 -14
-14 -9 0 -10 4 -2 14 6 7 12 13 14 13 1 0 2 -6 2 -13z m0 -80 c0 -8 -6 -14
-14 -14 -9 0 -10 4 -2 14 6 7 12 13 14 13 1 0 2 -6 2 -13z m0 -80 c0 -8 -6
-14 -14 -14 -9 0 -10 4 -2 14 6 7 12 13 14 13 1 0 2 -6 2 -13z m0 -80 c0 -8
-6 -14 -14 -14 -9 0 -10 4 -2 14 6 7 12 13 14 13 1 0 2 -6 2 -13z m0 -80 c0
-8 -6 -14 -14 -14 -9 0 -10 4 -2 14 6 7 12 13 14 13 1 0 2 -6 2 -13z m0 -80
c0 -8 -6 -14 -14 -14 -9 0 -10 4 -2 14 6 7 12 13 14 13 1 0 2 -6 2 -13z m0
-80 c0 -8 -6 -14 -14 -14 -9 0 -10 4 -2 14 6 7 12 13 14 13 1 0 2 -6 2 -13z
m0 -80 c0 -8 -6 -14 -14 -14 -9 0 -10 4 -2 14 6 7 12 13 14 13 1 0 2 -6 2 -13z
m0 -80 c0 -8 -6 -14 -14 -14 -9 0 -10 4 -2 14 6 7 12 13 14 13 1 0 2 -6 2 -13z
m0 -80 c0 -8 -6 -14 -14 -14 -9 0 -10 4 -2 14 6 7 12 13 14 13 1 0 2 -6 2 -13z
m0 -80 c0 -8 -6 -14 -14 -14 -9 0 -10 4 -2 14 6 7 12 13 14 13 1 0 2 -6 2 -13z"/>
<path d="M2000 1818 l0 -31 -23 21 c-13 12 -36 22 -51 22 -34 0 -76 -41 -76
-75 0 -35 42 -75 78 -75 15 0 38 9 50 20 l22 21 0 -231 0 -230 65 0 65 0 0 67
0 67 68 -67 68 -67 84 0 85 0 -93 93 -92 92 82 83 83 82 -85 0 -84 0 -58 -57
-58 -57 0 177 0 177 -65 0 -65 0 0 -32z"/>
<path d="M2528 1380 c-25 -26 -29 -36 -24 -63 8 -40 39 -67 78 -67 42 0 64 15
77 50 12 37 1 72 -31 94 -34 24 -66 19 -100 -14z"/>
<path d="M1500 1060 c0 -63 2 -70 20 -70 18 0 20 7 20 70 0 63 -2 70 -20 70
-18 0 -20 -7 -20 -70z"/>
<path d="M1660 1060 c0 -63 2 -70 20 -70 16 0 20 7 20 37 l0 38 25 -38 c15
-21 34 -37 45 -37 18 0 20 7 20 70 0 63 -2 70 -19 70 -15 0 -21 -8 -23 -32
l-3 -33 -20 33 c-13 21 -27 32 -42 32 -22 0 -23 -4 -23 -70z"/>
</g>
</svg>
